<svg width="32" height="32" viewBox="0 0 32 32" fill="none" xmlns="http://www.w3.org/2000/svg">
<path fill-rule="evenodd" clip-rule="evenodd" d="M6.772 6.75866C11.832 1.70533 20.0587 1.75866 25.1493 6.85066C30.2427 11.944 30.296 20.1747 25.2347 25.2347C20.1733 30.2947 11.944 30.2427 6.85066 25.1493C5.41782 23.7227 4.33524 21.9833 3.68793 20.0678C3.04063 18.1522 2.84622 16.1127 3.11999 14.1093C3.15589 13.8464 3.29475 13.6085 3.50604 13.448C3.71734 13.2875 3.98374 13.2174 4.24666 13.2533C4.50958 13.2892 4.74747 13.4281 4.908 13.6394C5.06853 13.8507 5.13855 14.1171 5.10266 14.38C4.87024 16.0777 5.03477 17.8063 5.58331 19.4297C6.13185 21.0531 7.04946 22.5272 8.264 23.736C12.5907 28.0613 19.5547 28.0867 23.8213 23.8213C28.0867 19.5547 28.0613 12.5907 23.736 8.264C19.412 3.94133 12.452 3.91333 8.18533 8.17333L9.18266 8.17733C9.31398 8.17794 9.4439 8.20442 9.56499 8.25524C9.68608 8.30606 9.79598 8.38023 9.8884 8.47352C9.98083 8.56682 10.054 8.6774 10.1037 8.79896C10.1533 8.92052 10.1786 9.05068 10.178 9.182C10.1774 9.31332 10.1509 9.44324 10.1001 9.56433C10.0493 9.68542 9.97509 9.79531 9.8818 9.88774C9.78851 9.98016 9.67793 10.0533 9.55637 10.103C9.43481 10.1527 9.30465 10.1779 9.17333 10.1773L5.77866 10.1613C5.51506 10.1599 5.26268 10.0545 5.07641 9.86798C4.89014 9.68146 4.78505 9.42893 4.784 9.16533L4.76666 5.77333C4.76596 5.64201 4.79113 5.51184 4.84074 5.39024C4.89035 5.26865 4.96342 5.15802 5.05578 5.06466C5.14815 4.97131 5.25799 4.89706 5.37905 4.84616C5.50011 4.79526 5.63001 4.7687 5.76133 4.768C5.89265 4.7673 6.02282 4.79247 6.14442 4.84208C6.26601 4.89169 6.37664 4.96476 6.47 5.05712C6.56335 5.14948 6.6376 5.25933 6.6885 5.38039C6.7394 5.50144 6.76596 5.63134 6.76666 5.76266L6.772 6.75866ZM15.9987 9.66533C16.2639 9.66533 16.5182 9.77069 16.7058 9.95822C16.8933 10.1458 16.9987 10.4001 16.9987 10.6653V15.5853L20.04 18.6253C20.1355 18.7175 20.2118 18.8278 20.2642 18.9498C20.3167 19.0718 20.3444 19.203 20.3456 19.3358C20.3468 19.4686 20.3216 19.6003 20.2713 19.7232C20.2211 19.8461 20.1469 19.9578 20.0531 20.0517C19.9592 20.1457 19.8476 20.22 19.7247 20.2703C19.6018 20.3206 19.4702 20.346 19.3374 20.3449C19.2046 20.3438 19.0734 20.3163 18.9514 20.2639C18.8293 20.2116 18.719 20.1355 18.6267 20.04L15 16.4133V10.6667C15 10.4014 15.1054 10.1471 15.2929 9.95956C15.4804 9.77202 15.7348 9.66666 16 9.66666" fill="white"/>
</svg>
