<svg width="22" height="22" viewBox="0 0 22 22" fill="none" xmlns="http://www.w3.org/2000/svg">
<path d="M19.364 12.707C19.5514 12.5195 19.6567 12.2652 19.6567 12C19.6567 11.7348 19.5514 11.4805 19.364 11.293L13.707 5.63599C13.6147 5.54048 13.5044 5.4643 13.3824 5.41189C13.2604 5.35948 13.1291 5.3319 12.9964 5.33074C12.8636 5.32959 12.7319 5.35489 12.609 5.40517C12.4861 5.45545 12.3744 5.5297 12.2806 5.6236C12.1867 5.71749 12.1124 5.82914 12.0621 5.95204C12.0118 6.07493 11.9865 6.20661 11.9877 6.33939C11.9889 6.47217 12.0164 6.60339 12.0689 6.7254C12.1213 6.8474 12.1974 6.95775 12.293 7.04999L16.243 11H2.99995C2.73474 11 2.48038 11.1053 2.29284 11.2929C2.10531 11.4804 1.99995 11.7348 1.99995 12C1.99995 12.2652 2.10531 12.5196 2.29284 12.7071C2.48038 12.8946 2.73474 13 2.99995 13H16.243L12.293 16.95C12.1108 17.1386 12.01 17.3912 12.0123 17.6534C12.0146 17.9156 12.1197 18.1664 12.3051 18.3518C12.4905 18.5372 12.7414 18.6424 13.0036 18.6447C13.2657 18.6469 13.5183 18.5461 13.707 18.364L19.364 12.707Z" fill="white"/>
</svg>
